# xmcd
#
# Track frame offsets:
#	150
#	14625
#	30802
#	43862
#	56287
#	72915
#	87775
#	101475
#	116942
#	134375
#	151020
#	170500
#
# Disc length: 2510 seconds
#
# Revision: 1
# Processed by: cddbd v1.5.2PL0 Copyright (c) Steve Scherf et al.
# Submitted via: audiograbber 1.83.01
#
DISCID=9409cc0c
DTITLE=Casey Berry and The Live Texas Mosquitoes - Vintage
DYEAR=2008
DGENRE=Country Rock
TTITLE0=I Know A Liar
TTITLE1=Baby When You're Blue
TTITLE2=Lose-Lose Scenerio
TTITLE3=Sister So Long
TTITLE4=Remember Mobile
TTITLE5=Before The Sunrise
TTITLE6=Something About You
TTITLE7=Nothing To Do With Love
TTITLE8=Cocaine Jane
TTITLE9=Chasing The Wind
TTITLE10=Outlaws Last Stand
TTITLE11=Round And Round
EXTD=
EXTT0=
EXTT1=
EXTT2=
EXTT3=
EXTT4=
EXTT5=
EXTT6=
EXTT7=
EXTT8=
EXTT9=
EXTT10=
EXTT11=
PLAYORDER=
